<svg id="Layer_1" data-name="Layer 1" xmlns="http://www.w3.org/2000/svg" viewBox="0 0 1761 836.1"><defs><style>.cls-1{fill:#350a9b;}.cls-2{fill:#9c0f00;}.cls-3{font-size:348.12px;font-family:Arial-BoldMT, Arial;font-weight:700;}.cls-4{font-size:133.44px;fill:#5d6061;font-family:Gilroy-Regular, Gilroy Regular;letter-spacing:0.1em;}</style></defs><title>logo</title><polygon class="cls-1" points="1271.41 200.39 688.07 379.9 1161.18 274.81 1172.6 320 1271.41 200.39"/><polygon class="cls-1" points="1255.81 62.38 720.2 294.23 1127.62 75.79 1105.66 34.68 1255.81 62.38"/><polygon class="cls-2" points="502.71 420.25 1313.55 167.25 1340.53 235.84 1482.57 34.68 1247.76 0 1274.36 67.61 502.71 420.25"/><path class="cls-1" d="M823.72,506.21a5.07,5.07,0,1,0-10,1.38,249.52,249.52,0,0,1,2.12,28.71H735.4c-.11-9-.46-18.06-1.18-26.91a5.07,5.07,0,1,0-10.1.82c.69,8.58,1,17.33,1.14,26.09H576V473c79.06-1,152.63-25.44,199.66-66.16,2,3,4,6,5.85,9.11a5.08,5.08,0,0,0,8.72-5.2c-2.29-3.83-4.73-7.53-7.2-11.21a5,5,0,0,0-4.81-6.86,256,256,0,0,0-74-68.58,5,5,0,0,0-2.57-1.56,253.8,253.8,0,0,0-262.13.12,5.13,5.13,0,0,0-.72.41,257.1,257.1,0,0,0-77.2,72.53c-.07.07-.17.1-.24.17a4.5,4.5,0,0,0-.63,1,253.69,253.69,0,0,0-45,144.53A260.1,260.1,0,0,0,317,567.45a5.06,5.06,0,0,0,5,4.56l.53,0a5.07,5.07,0,0,0,4.53-5.56c-.67-6.59-1-13.3-1.13-20h18.95a5.07,5.07,0,0,0,0-10.14H326a243.4,243.4,0,0,1,40.22-129.42A235.65,235.65,0,0,0,419.48,441a373.94,373.94,0,0,0-11.34,62.29,5.08,5.08,0,0,0,4.57,5.53,4.18,4.18,0,0,0,.5,0,5.08,5.08,0,0,0,5-4.58A353.82,353.82,0,0,1,429,445.34c40.08,17.25,87.47,27.05,136.85,27.69V536.3h-72a5.07,5.07,0,1,0,0,10.14h72V791.5a5.07,5.07,0,0,0,10.14,0V546.44h149.2c-.08,6.76-.22,13.53-.64,20.17a5.07,5.07,0,0,0,4.73,5.39h.33a5.08,5.08,0,0,0,5.06-4.74c.45-6.86.58-13.85.67-20.83h80.51c-.14,6.69-.47,13.4-1.13,20a5.06,5.06,0,0,0,4.52,5.56l.53,0a5.06,5.06,0,0,0,5-4.56,258.56,258.56,0,0,0-1.08-61.24ZM576,296.6c28.48,1.51,55.67,15.44,78.86,39.33A374.57,374.57,0,0,1,576,345.2Zm-10.14,48.6A374.29,374.29,0,0,1,487.4,336c23-23.64,49.88-37.83,78.45-39.35ZM576,355.34a382.24,382.24,0,0,0,86.6-10.9c19.94,23.38,36.39,54.42,47.52,91.1-39,17-85.45,26.71-134.12,27.34Zm193.86,43.11a223.56,223.56,0,0,1-50.46,32.79c-11-35.52-26.84-65.9-46.09-89.57q13.44-3.78,26.17-8.58A245.73,245.73,0,0,1,769.85,398.45Zm-81.84-72c-7.19,2.47-14.54,4.73-22.06,6.73A161.72,161.72,0,0,0,631.23,304,247.05,247.05,0,0,1,688,326.42ZM475.3,333c-7.42-2-14.66-4.23-21.76-6.69a243.84,243.84,0,0,1,56.62-22.37A159,159,0,0,0,475.3,333ZM372,398.49A247,247,0,0,1,442.12,333q12.66,4.77,26,8.56c-19.3,23.8-35,54.26-45.82,89.62A223.45,223.45,0,0,1,372,398.49Zm59.83,37.1c11.07-36.24,27.55-67.45,47.71-91.07a382.64,382.64,0,0,0,86.3,10.82V462.88C517.33,462.25,470.86,452.59,431.84,435.59Z" transform="translate(-69.01 -121.12)"/><text class="cls-3" transform="translate(0 675.45)">aru travels</text><text class="cls-4" transform="translate(1063.48 802.74)">fly with us</text></svg>