<svg width="100%" height="100%" class="watermark absolute inset-0 pointer-events-none" style="opacity: 0.02;"><pattern id="watermark-light" width="180" height="180" x="0" y="0" patternUnits="userSpaceOnUse"><path fill="#000000" fill-rule="evenodd" d="M152.933 25.653l1.414 1.414-33.941 33.942-1.414-1.414zm1.414 127.279l-1.414 1.414-33.941-33.941 1.414-1.414zm-127.28 1.415l-1.414-1.414 33.941-33.941 1.414 1.414zm-1.414-127.28l1.414-1.414 33.942 33.941-1.414 1.414zM0 85a4 4 0 014 4 4 4 0 01-4 4zm180 0a4 4 0 000 8zM94 0a4 4 0 01-4 4 4 4 0 01-4-4zm0 180a4 4 0 00-8 0z"></path><path fill="#000000" d="M91.227 85.334a10.42 10.42 0 01-.821-4.149 10.29 10.29 0 01.828-4.142 9.359 9.359 0 012.269-3.227 10.516 10.516 0 013.421-2.067 12.408 12.408 0 018.492 0 10.416 10.416 0 013.421 2.067 9.488 9.488 0 012.269 3.227 10.682 10.682 0 010 8.283 9.488 9.488 0 01-2.269 3.227 10.416 10.416 0 01-3.421 2.067 12.408 12.408 0 01-8.492 0 10.516 10.516 0 01-3.421-2.067 9.457 9.457 0 01-2.276-3.219zM69 102.82a10.445 10.445 0 01.85-4.242 9.065 9.065 0 012.319-3.227 10.644 10.644 0 013.443-2 12.284 12.284 0 014.206-.713 10.939 10.939 0 012.586.3 9.148 9.148 0 012.139.785 9.336 9.336 0 013.011 2.557 9.507 9.507 0 01.922 1.505l-5.027 2.564a4.608 4.608 0 00-1.433-1.729 3.558 3.558 0 00-2.2-.72 4.5 4.5 0 00-3.443 1.419 5.3 5.3 0 000 7.015 4.5 4.5 0 003.443 1.419 4.707 4.707 0 002.067-.454 4.428 4.428 0 001.534-1.174h-4.174v-5.192h10.731q0 5.791-2.874 8.931a10.122 10.122 0 01-7.858 3.14 10.573 10.573 0 01-3.868-.72 10.447 10.447 0 01-3.27-2.01 9.3 9.3 0 01-2.261-3.226A10.485 10.485 0 0169 102.82zm22.227 4.147a10.42 10.42 0 01-.821-4.149 10.29 10.29 0 01.828-4.142 9.359 9.359 0 012.269-3.227 10.516 10.516 0 013.421-2.067 12.408 12.408 0 018.492 0 10.416 10.416 0 013.421 2.067 9.488 9.488 0 012.269 3.227 10.682 10.682 0 010 8.283 9.488 9.488 0 01-2.269 3.227 10.415 10.415 0 01-3.421 2.067 12.408 12.408 0 01-8.492 0 10.516 10.516 0 01-3.421-2.067 9.457 9.457 0 01-2.276-3.219zm6.579-28.761a4.89 4.89 0 00.007 6.41 4.471 4.471 0 006.278 0 4.86 4.86 0 000-6.41 4.479 4.479 0 00-6.285 0zm0 21.635a4.89 4.89 0 00.007 6.41 4.471 4.471 0 006.278 0 4.86 4.86 0 000-6.41 4.479 4.479 0 00-6.285 0zM76.763 85.404h11.653a.3.3 0 01.3.3v5.509a.3.3 0 01-.293.3l-18.046.1a.3.3 0 01-.3-.293V72.03a.2.2 0 01.2-.2h6.294a.2.2 0 01.2.2z"></path><path fill="#000000" d="M1.227-6.666a10.42 10.42 0 01-.821-4.149 10.29 10.29 0 01.828-4.142 9.359 9.359 0 012.269-3.227 10.516 10.516 0 013.421-2.067 12.408 12.408 0 018.492 0 10.416 10.416 0 013.421 2.067 9.488 9.488 0 012.269 3.227 10.682 10.682 0 010 8.283 9.488 9.488 0 01-2.269 3.227 10.416 10.416 0 01-3.421 2.067 12.408 12.408 0 01-8.492 0 10.516 10.516 0 01-3.421-2.067 9.457 9.457 0 01-2.276-3.219zM-21 10.82a10.445 10.445 0 01.85-4.242 9.065 9.065 0 012.319-3.227 10.644 10.644 0 013.443-2 12.284 12.284 0 014.206-.713 10.939 10.939 0 012.586.3 9.148 9.148 0 012.139.785A9.336 9.336 0 01-2.446 4.28a9.507 9.507 0 01.922 1.505l-5.027 2.564A4.608 4.608 0 00-7.984 6.62a3.558 3.558 0 00-2.2-.72 4.5 4.5 0 00-3.443 1.419 5.3 5.3 0 000 7.015 4.5 4.5 0 003.443 1.419 4.707 4.707 0 002.067-.454 4.428 4.428 0 001.534-1.174h-4.174V8.933H-.026q0 5.791-2.874 8.931a10.122 10.122 0 01-7.858 3.14 10.573 10.573 0 01-3.868-.72 10.447 10.447 0 01-3.27-2.01 9.3 9.3 0 01-2.261-3.226A10.485 10.485 0 01-21 10.82zm22.227 4.147a10.42 10.42 0 01-.821-4.149 10.29 10.29 0 01.828-4.142 9.359 9.359 0 012.269-3.227 10.516 10.516 0 013.421-2.067 12.408 12.408 0 018.492 0 10.416 10.416 0 013.421 2.067 9.488 9.488 0 012.269 3.227 10.682 10.682 0 010 8.283 9.488 9.488 0 01-2.269 3.227 10.415 10.415 0 01-3.421 2.067 12.408 12.408 0 01-8.492 0 10.516 10.516 0 01-3.421-2.067 9.457 9.457 0 01-2.276-3.219zm6.579-28.761a4.89 4.89 0 00.007 6.41 4.471 4.471 0 006.278 0 4.86 4.86 0 000-6.41 4.479 4.479 0 00-6.285 0zm0 21.635a4.89 4.89 0 00.007 6.41 4.471 4.471 0 006.278 0 4.86 4.86 0 000-6.41 4.479 4.479 0 00-6.285 0zM-13.237-6.596h11.653a.3.3 0 01.3.3v5.509a.3.3 0 01-.293.3l-18.046.1a.3.3 0 01-.3-.293v-19.29a.2.2 0 01.2-.2h6.294a.2.2 0 01.2.2zm14.464 179.93a10.42 10.42 0 01-.821-4.149 10.29 10.29 0 01.828-4.142 9.359 9.359 0 012.269-3.227 10.516 10.516 0 013.421-2.067 12.408 12.408 0 018.492 0 10.416 10.416 0 013.421 2.067 9.488 9.488 0 012.269 3.227 10.682 10.682 0 010 8.283 9.488 9.488 0 01-2.269 3.227 10.416 10.416 0 01-3.421 2.067 12.408 12.408 0 01-8.492 0 10.516 10.516 0 01-3.421-2.067 9.457 9.457 0 01-2.276-3.219zM-21 190.82a10.445 10.445 0 01.85-4.242 9.065 9.065 0 012.319-3.227 10.644 10.644 0 013.443-2 12.284 12.284 0 014.206-.713 10.939 10.939 0 012.586.3 9.148 9.148 0 012.139.785 9.336 9.336 0 013.011 2.557 9.507 9.507 0 01.922 1.505l-5.027 2.564a4.608 4.608 0 00-1.433-1.729 3.558 3.558 0 00-2.2-.72 4.5 4.5 0 00-3.443 1.419 5.3 5.3 0 000 7.015 4.5 4.5 0 003.443 1.419 4.707 4.707 0 002.067-.454 4.428 4.428 0 001.534-1.174h-4.174v-5.192H-.026q0 5.791-2.874 8.931a10.122 10.122 0 01-7.858 3.14 10.573 10.573 0 01-3.868-.72 10.447 10.447 0 01-3.27-2.01 9.3 9.3 0 01-2.261-3.226A10.485 10.485 0 01-21 190.82zm22.227 4.147a10.42 10.42 0 01-.821-4.149 10.29 10.29 0 01.828-4.142 9.359 9.359 0 012.269-3.227 10.516 10.516 0 013.421-2.067 12.408 12.408 0 018.492 0 10.416 10.416 0 013.421 2.067 9.488 9.488 0 012.269 3.227 10.682 10.682 0 010 8.283 9.488 9.488 0 01-2.269 3.227 10.415 10.415 0 01-3.421 2.067 12.408 12.408 0 01-8.492 0 10.516 10.516 0 01-3.421-2.067 9.457 9.457 0 01-2.276-3.219zm6.579-28.761a4.89 4.89 0 00.007 6.41 4.471 4.471 0 006.278 0 4.86 4.86 0 000-6.41 4.479 4.479 0 00-6.285 0zm0 21.635a4.89 4.89 0 00.007 6.41 4.471 4.471 0 006.278 0 4.86 4.86 0 000-6.41 4.479 4.479 0 00-6.285 0zm-21.043-14.437h11.653a.3.3 0 01.3.3v5.509a.3.3 0 01-.293.3l-18.046.1a.3.3 0 01-.3-.293v-19.29a.2.2 0 01.2-.2h6.294a.2.2 0 01.2.2zm194.464-.07a10.42 10.42 0 01-.821-4.149 10.29 10.29 0 01.828-4.142 9.359 9.359 0 012.269-3.227 10.516 10.516 0 013.421-2.067 12.408 12.408 0 018.492 0 10.416 10.416 0 013.421 2.067 9.488 9.488 0 012.269 3.227 10.682 10.682 0 010 8.283 9.488 9.488 0 01-2.269 3.227 10.416 10.416 0 01-3.421 2.067 12.408 12.408 0 01-8.492 0 10.516 10.516 0 01-3.421-2.067 9.457 9.457 0 01-2.276-3.219zM159 190.82a10.445 10.445 0 01.85-4.242 9.065 9.065 0 012.319-3.227 10.644 10.644 0 013.443-2 12.284 12.284 0 014.206-.713 10.939 10.939 0 012.586.3 9.148 9.148 0 012.139.785 9.336 9.336 0 013.011 2.557 9.507 9.507 0 01.922 1.505l-5.027 2.564a4.608 4.608 0 00-1.433-1.729 3.558 3.558 0 00-2.2-.72 4.5 4.5 0 00-3.443 1.419 5.3 5.3 0 000 7.015 4.5 4.5 0 003.443 1.419 4.707 4.707 0 002.067-.454 4.428 4.428 0 001.534-1.174h-4.174v-5.192h10.731q0 5.791-2.874 8.931a10.122 10.122 0 01-7.858 3.14 10.573 10.573 0 01-3.868-.72 10.447 10.447 0 01-3.27-2.01 9.3 9.3 0 01-2.261-3.226 10.485 10.485 0 01-.843-4.228zm22.227 4.147a10.42 10.42 0 01-.821-4.149 10.29 10.29 0 01.828-4.142 9.359 9.359 0 012.269-3.227 10.516 10.516 0 013.421-2.067 12.408 12.408 0 018.492 0 10.416 10.416 0 013.421 2.067 9.488 9.488 0 012.269 3.227 10.682 10.682 0 010 8.283 9.488 9.488 0 01-2.269 3.227 10.415 10.415 0 01-3.421 2.067 12.408 12.408 0 01-8.492 0 10.516 10.516 0 01-3.421-2.067 9.457 9.457 0 01-2.276-3.219zm6.579-28.761a4.89 4.89 0 00.007 6.41 4.471 4.471 0 006.278 0 4.86 4.86 0 000-6.41 4.479 4.479 0 00-6.285 0zm0 21.635a4.89 4.89 0 00.007 6.41 4.471 4.471 0 006.278 0 4.86 4.86 0 000-6.41 4.479 4.479 0 00-6.285 0zm-21.043-14.437h11.653a.3.3 0 01.3.3v5.509a.3.3 0 01-.293.3l-18.046.1a.3.3 0 01-.3-.293v-19.29a.2.2 0 01.2-.2h6.294a.2.2 0 01.2.2zm14.464-180.07a10.42 10.42 0 01-.821-4.149 10.29 10.29 0 01.828-4.142 9.359 9.359 0 012.269-3.227 10.516 10.516 0 013.421-2.067 12.408 12.408 0 018.492 0 10.416 10.416 0 013.421 2.067 9.488 9.488 0 012.269 3.227 10.682 10.682 0 010 8.283 9.488 9.488 0 01-2.269 3.227 10.416 10.416 0 01-3.421 2.067 12.408 12.408 0 01-8.492 0 10.516 10.516 0 01-3.421-2.067 9.457 9.457 0 01-2.276-3.219zM159 10.82a10.445 10.445 0 01.85-4.242 9.065 9.065 0 012.319-3.227 10.644 10.644 0 013.443-2 12.284 12.284 0 014.206-.713 10.939 10.939 0 012.586.3 9.148 9.148 0 012.139.785 9.336 9.336 0 013.011 2.557 9.507 9.507 0 01.922 1.505l-5.027 2.564a4.608 4.608 0 00-1.433-1.729 3.558 3.558 0 00-2.2-.72 4.5 4.5 0 00-3.443 1.419 5.3 5.3 0 000 7.015 4.5 4.5 0 003.443 1.419 4.707 4.707 0 002.067-.454 4.428 4.428 0 001.534-1.174h-4.174V8.933h10.731q0 5.791-2.874 8.931a10.122 10.122 0 01-7.858 3.14 10.573 10.573 0 01-3.868-.72 10.447 10.447 0 01-3.27-2.01 9.3 9.3 0 01-2.261-3.226A10.485 10.485 0 01159 10.82zm22.227 4.147a10.42 10.42 0 01-.821-4.149 10.29 10.29 0 01.828-4.142 9.359 9.359 0 012.269-3.227 10.516 10.516 0 013.421-2.067 12.408 12.408 0 018.492 0 10.416 10.416 0 013.421 2.067 9.488 9.488 0 012.269 3.227 10.682 10.682 0 010 8.283 9.488 9.488 0 01-2.269 3.227 10.415 10.415 0 01-3.421 2.067 12.408 12.408 0 01-8.492 0 10.516 10.516 0 01-3.421-2.067 9.457 9.457 0 01-2.276-3.219zm6.579-28.761a4.89 4.89 0 00.007 6.41 4.471 4.471 0 006.278 0 4.86 4.86 0 000-6.41 4.479 4.479 0 00-6.285 0zm0 21.635a4.89 4.89 0 00.007 6.41 4.471 4.471 0 006.278 0 4.86 4.86 0 000-6.41 4.479 4.479 0 00-6.285 0zM166.763-6.596h11.653a.3.3 0 01.3.3v5.509a.3.3 0 01-.293.3l-18.046.1a.3.3 0 01-.3-.293v-19.29a.2.2 0 01.2-.2h6.294a.2.2 0 01.2.2z" data-name="Logo.com-Logo"></path></pattern><rect width="100%" height="100%" fill="url(#watermark-light)"></rect></svg>