<svg xmlns="http://www.w3.org/2000/svg" xmlns:xlink="http://www.w3.org/1999/xlink" viewBox="0 0 546.1110011220751 134.24565678597003" height="97.22719751642184" width="395.52"><g transform="matrix(1,0,0,1,0,18.553488021794706)"><svg viewBox="0 0 395.52 97.13868074238061" height="97.13868074238061" width="395.52"><g><svg viewBox="0 0 395.52 97.13868074238061" height="97.13868074238061" width="395.52"><g><svg viewBox="0 0 395.52 69.23763676148795" height="69.23763676148795" width="395.52"><g transform="matrix(1,0,0,1,0,0)"><svg width="395.52" viewBox="0.6000000238418579 -35.5 205.6199951171875 36" height="69.23763676148795" data-palette-color="#000000"><path d="M0.6 0L6.3-35 13.75-35 19.45 0 13.95 0 12.95-6.95 12.95-6.85 6.7-6.85 5.7 0 0.6 0ZM7.35-11.6L12.3-11.6 9.85-28.9 9.75-28.9 7.35-11.6ZM30 0.5Q26 0.5 23.9-1.78 21.8-4.05 21.8-8.3L21.8-8.3 21.8-35 27.3-35 27.3-7.9Q27.3-6.1 28.02-5.3 28.75-4.5 30.1-4.5L30.1-4.5Q31.45-4.5 32.17-5.3 32.9-6.1 32.9-7.9L32.9-7.9 32.9-35 38.2-35 38.2-8.3Q38.2-4.05 36.1-1.78 34 0.5 30 0.5L30 0.5ZM42.09 0L42.09-35 50.25-35Q54.5-35 56.45-33.02 58.4-31.05 58.4-26.95L58.4-26.95 58.4-24.8Q58.4-19.35 54.8-17.9L54.8-17.9 54.8-17.8Q56.8-17.2 57.62-15.35 58.45-13.5 58.45-10.4L58.45-10.4 58.45-4.25Q58.45-2.75 58.55-1.83 58.65-0.9 59.05 0L59.05 0 53.45 0Q53.15-0.85 53.05-1.6 52.95-2.35 52.95-4.3L52.95-4.3 52.95-10.7Q52.95-13.1 52.17-14.05 51.4-15 49.5-15L49.5-15 47.59-15 47.59 0 42.09 0ZM47.59-20L49.59-20Q51.25-20 52.07-20.85 52.9-21.7 52.9-23.7L52.9-23.7 52.9-26.4Q52.9-28.3 52.22-29.15 51.55-30 50.09-30L50.09-30 47.59-30 47.59-20ZM66.44 0L66.44-30 60.69-30 60.69-35 77.69-35 77.69-30 71.94-30 71.94 0 66.44 0ZM80.34 0L80.34-35 88.49-35Q92.74-35 94.69-33.02 96.64-31.05 96.64-26.95L96.64-26.95 96.64-24.8Q96.64-19.35 93.04-17.9L93.04-17.9 93.04-17.8Q95.04-17.2 95.87-15.35 96.69-13.5 96.69-10.4L96.69-10.4 96.69-4.25Q96.69-2.75 96.79-1.83 96.89-0.9 97.29 0L97.29 0 91.69 0Q91.39-0.85 91.29-1.6 91.19-2.35 91.19-4.3L91.19-4.3 91.19-10.7Q91.19-13.1 90.42-14.05 89.64-15 87.74-15L87.74-15 85.84-15 85.84 0 80.34 0ZM85.84-20L87.84-20Q89.49-20 90.32-20.85 91.14-21.7 91.14-23.7L91.14-23.7 91.14-26.4Q91.14-28.3 90.47-29.15 89.79-30 88.34-30L88.34-30 85.84-30 85.84-20ZM99.04 0L104.74-35 112.19-35 117.89 0 112.39 0 111.39-6.95 111.39-6.85 105.14-6.85 104.14 0 99.04 0ZM105.79-11.6L110.74-11.6 108.29-28.9 108.19-28.9 105.79-11.6ZM122.99 0L117.69-35 123.24-35 126.84-7.85 126.94-7.85 130.53-35 135.59-35 130.28 0 122.99 0ZM138.23 0L138.23-35 153.23-35 153.23-30 143.73-30 143.73-20.75 151.28-20.75 151.28-15.75 143.73-15.75 143.73-5 153.23-5 153.23 0 138.23 0ZM156.38 0L156.38-35 161.88-35 161.88-5 170.93-5 170.93 0 156.38 0ZM173.58 0L173.58-35 179.08-35 179.08-5 188.13-5 188.13 0 173.58 0ZM197.92 0.5Q193.92 0.5 191.88-1.78 189.82-4.05 189.82-8.3L189.82-8.3 189.82-10.3 195.03-10.3 195.03-7.9Q195.03-4.5 197.88-4.5L197.88-4.5Q199.28-4.5 200-5.33 200.72-6.15 200.72-8L200.72-8Q200.72-10.2 199.72-11.88 198.72-13.55 196.03-15.9L196.03-15.9Q192.63-18.9 191.28-21.33 189.92-23.75 189.92-26.8L189.92-26.8Q189.92-30.95 192.03-33.23 194.13-35.5 198.13-35.5L198.13-35.5Q202.07-35.5 204.1-33.23 206.13-30.95 206.13-26.7L206.13-26.7 206.13-25.25 200.92-25.25 200.92-27.05Q200.92-28.85 200.22-29.68 199.53-30.5 198.17-30.5L198.17-30.5Q195.42-30.5 195.42-27.15L195.42-27.15Q195.42-25.25 196.45-23.6 197.47-21.95 200.17-19.6L200.17-19.6Q203.63-16.6 204.92-14.15 206.22-11.7 206.22-8.4L206.22-8.4Q206.22-4.1 204.1-1.8 201.97 0.5 197.92 0.5L197.92 0.5Z" opacity="1" transform="matrix(1,0,0,1,0,0)" fill="#000000" class="undefined-text-0" data-fill-palette-color="primary" id="text-0"></path></svg></g></svg></g><g transform="matrix(1,0,0,1,163.310208,85.58298109759298)"><svg viewBox="0 0 232.209792 11.555699644787644" height="11.555699644787644" width="232.209792"><g transform="matrix(1,0,0,1,0,0)"><svg width="232.209792" viewBox="3.25 -34.29999923706055 699.239990234375 34.79999923706055" height="11.555699644787644" data-palette-color="#0074d9"><path d="M22.15-18.85L22.15-12.7 11-12.7 11 0 3.25 0 3.25-33.7 23.8-33.7 23.8-27.55 11-27.55 11-18.85 22.15-18.85ZM48.7-6.75L48.7 0 28.55 0 28.55-33.7 36.25-33.7 36.25-6.75 48.7-6.75ZM69.55-12.4L69.55 0 61.85 0 61.85-12.35 50.35-33.7 59.35-33.7 61.4-28.8Q63-25 64.05-22.3 65.1-19.6 65.4-18.8L65.4-18.8 65.65-18Q66.15-20.25 70.05-28.8L70.05-28.8 72.25-33.7 81.2-33.7 69.55-12.4ZM112.89-33.7L112.89 0 105.14 0 105.14-13.45 92.79-13.45 92.79 0 85.09 0 85.09-33.7 92.79-33.7 92.79-20 105.14-20 105.14-33.7 112.89-33.7ZM127.59-33.7L127.59 0 119.89 0 119.89-33.7 127.59-33.7ZM163.64-20.1L163.64-3.1Q158.84 0.4 151.54 0.4L151.54 0.4Q143.44 0.4 138.39-4.25 133.34-8.9 133.34-16.9L133.34-16.9Q133.34-24.8 138.61-29.55 143.89-34.3 151.99-34.3L151.99-34.3Q157.69-34.3 161.84-32.2L161.84-32.2 161.84-24.5Q157.04-27.25 151.99-27.25L151.99-27.25Q147.24-27.25 144.44-24.43 141.64-21.6 141.64-16.9L141.64-16.9Q141.64-12.15 144.39-9.35 147.14-6.55 151.89-6.55L151.89-6.55Q154.04-6.55 156.14-7.2L156.14-7.2 156.14-13.55 150.69-13.55 150.69-20.1 163.64-20.1ZM197.69-33.7L197.69 0 189.94 0 189.94-13.45 177.59-13.45 177.59 0 169.89 0 169.89-33.7 177.59-33.7 177.59-20 189.94-20 189.94-33.7 197.69-33.7ZM226.63-33.7L226.63-27.5 218.43-27.5 218.43 0 210.68 0 210.68-27.5 202.43-27.5 202.43-33.7 226.63-33.7ZM262.33-10.65L259.23 0 250.63 0 241.58-33.7 249.68-33.7 252.78-21.3Q253.78-17.3 254.43-14.08 255.08-10.85 255.23-9.6L255.23-9.6 255.43-8.4Q256.28-12.3 258.83-21.3L258.83-21.3 262.18-33.2 267.88-33.2 271.18-21.3Q272.23-17.55 273.05-14.33 273.88-11.1 274.18-9.75L274.18-9.75 274.48-8.4Q275.13-12.85 277.28-21.35L277.28-21.35 280.38-33.7 288.23-33.7 279.23 0 270.63 0 267.68-10.65Q266.63-14.5 265.95-17.15 265.28-19.8 265.13-20.55L265.13-20.55 265.03-21.3Q264.88-19.25 262.33-10.65L262.33-10.65ZM300.63-33.7L300.63 0 292.93 0 292.93-33.7 300.63-33.7ZM330.07-33.7L330.07-27.5 321.87-27.5 321.87 0 314.12 0 314.12-27.5 305.87-27.5 305.87-33.7 330.07-33.7ZM362.62-33.7L362.62 0 354.87 0 354.87-13.45 342.52-13.45 342.52 0 334.82 0 334.82-33.7 342.52-33.7 342.52-20 354.87-20 354.87-33.7 362.62-33.7ZM391.82-14.3L391.82-14.3 391.47-13.1 399.57-13.1 399.22-14.3Q397.77-19.2 396.84-22.65 395.92-26.1 395.72-27.1L395.72-27.1 395.52-28.1Q395.12-25.35 391.82-14.3ZM389.62-6.9L387.57 0 379.52 0 390.77-33.7 400.47-33.7 411.72 0 403.47 0 401.42-6.9 389.62-6.9ZM443.26-33.7L443.26-13.05Q443.26-6.45 439.56-2.98 435.86 0.5 429.56 0.5L429.56 0.5Q423.36 0.5 419.61-2.95 415.86-6.4 415.86-12.7L415.86-12.7 415.86-33.7 423.56-33.7 423.56-12.75Q423.56-6.5 429.56-6.5 435.56-6.5 435.56-13L435.56-13 435.56-33.7 443.26-33.7ZM461.01-27.45L461.01-27.45 457.21-27.45 457.21-17.95 460.86-17.95Q465.86-17.95 465.86-22.85L465.86-22.85Q465.86-25 464.56-26.23 463.26-27.45 461.01-27.45ZM457.21-11.7L457.21 0 449.51 0 449.51-33.7 461.16-33.7Q466.81-33.7 470.24-30.7 473.66-27.7 473.66-22.9L473.66-22.9Q473.66-15.7 467.51-12.95L467.51-12.95 476.06 0 466.86 0 459.56-11.7 457.21-11.7ZM502.66-33.7L502.66-27.5 494.46-27.5 494.46 0 486.71 0 486.71-27.5 478.46-27.5 478.46-33.7 502.66-33.7ZM518.9-27.45L518.9-27.45 515.11-27.45 515.11-17.95 518.75-17.95Q523.75-17.95 523.75-22.85L523.75-22.85Q523.75-25 522.46-26.23 521.15-27.45 518.9-27.45ZM515.11-11.7L515.11 0 507.41 0 507.41-33.7 519.06-33.7Q524.71-33.7 528.13-30.7 531.56-27.7 531.56-22.9L531.56-22.9Q531.56-15.7 525.4-12.95L525.4-12.95 533.96 0 524.75 0 517.46-11.7 515.11-11.7ZM548.3-14.3L548.3-14.3 547.95-13.1 556.05-13.1 555.7-14.3Q554.25-19.2 553.33-22.65 552.4-26.1 552.2-27.1L552.2-27.1 552-28.1Q551.6-25.35 548.3-14.3ZM546.1-6.9L544.05 0 536 0 547.25-33.7 556.95-33.7 568.2 0 559.95 0 557.9-6.9 546.1-6.9ZM601.35-33.7L590 0 581.5 0 570.3-33.7 578.6-33.7 582.65-20.25Q583.75-16.65 584.55-13.33 585.35-10 585.6-8.5L585.6-8.5 585.85-6.95Q586.65-12.15 589.1-20.25L589.1-20.25 593.15-33.7 601.35-33.7ZM626.5-6.15L626.5 0 605.55 0 605.55-33.7 626.3-33.7 626.3-27.55 613.3-27.55 613.3-19.9 624.9-19.9 624.9-13.8 613.3-13.8 613.3-6.15 626.5-6.15ZM652.89-6.75L652.89 0 632.74 0 632.74-33.7 640.44-33.7 640.44-6.75 652.89-6.75ZM677.29-6.75L677.29 0 657.14 0 657.14-33.7 664.84-33.7 664.84-6.75 677.29-6.75ZM702.49-9.8L702.49-9.8Q702.49-5.25 699.14-2.43 695.79 0.4 690.24 0.4L690.24 0.4Q684.29 0.4 680.54-1.7L680.54-1.7 680.54-9.45Q685.09-6.15 690.24-6.15L690.24-6.15Q691.99-6.15 693.14-7.08 694.29-8 694.29-9.5L694.29-9.5Q694.29-10 694.14-10.45 693.99-10.9 693.59-11.3 693.19-11.7 692.81-11.98 692.44-12.25 691.71-12.63 690.99-13 690.49-13.25 689.99-13.5 689.01-13.95 688.04-14.4 687.44-14.65L687.44-14.65Q684.19-16.15 682.21-18.35 680.24-20.55 680.24-24.2L680.24-24.2Q680.24-28.55 683.44-31.23 686.64-33.9 692.29-33.9L692.29-33.9Q697.34-33.9 700.99-32.2L700.99-32.2 700.99-25Q696.94-27.35 692.59-27.35L692.59-27.35Q690.64-27.35 689.61-26.55 688.59-25.75 688.59-24.5 688.59-23.25 689.84-22.28 691.09-21.3 693.59-20.2L693.59-20.2Q695.14-19.5 696.16-18.98 697.19-18.45 698.51-17.53 699.84-16.6 700.61-15.58 701.39-14.55 701.94-13.05 702.49-11.55 702.49-9.8Z" opacity="1" transform="matrix(1,0,0,1,0,0)" fill="#0074d9" class="undefined-text-1" data-fill-palette-color="secondary" id="text-1"></path></svg></g></svg></g></svg></g></svg></g><g transform="matrix(1,0,0,1,411.865344336105,0)"><svg viewBox="0 0 134.24565678597003 134.24565678597003" height="134.24565678597003" width="134.24565678597003"><g><svg xmlns="http://www.w3.org/2000/svg" xmlns:xlink="http://www.w3.org/1999/xlink" version="1.1" x="0" y="0" viewBox="0 0 100 100" enable-background="new 0 0 100 100" xml:space="preserve" height="134.24565678597003" width="134.24565678597003" class="icon-icon-0" data-fill-palette-color="accent" id="icon-0"><g fill="#bc1a11" data-fill-palette-color="accent"><path fill="#bc1a11" d="M50 0C22.43 0 0 22.43 0 50s22.43 50 50 50 50-22.43 50-50S77.57 0 50 0zM84.24 21.362c-0.515 1.485-2.57 2.992-5.862 4.32-1.31-3.139-2.878-6.08-4.697-8.756-2.444-3.596-5.225-6.549-8.239-8.825C72.823 10.823 79.283 15.441 84.24 21.362zM75.85 26.591c-3.593 1.146-8.194 2.094-13.565 2.679-0.521-4.174-1.2-8.044-2.03-11.468-1.276-5.265-2.835-9.153-4.657-11.675C64.148 8.473 71.439 16.082 75.85 26.591zM50 5.357c4.187 0 7.814 9.814 9.613 24.165-3.01 0.249-6.223 0.389-9.613 0.389s-6.604-0.14-9.613-0.389C42.186 15.172 45.813 5.357 50 5.357zM39.746 17.802c-0.83 3.424-1.509 7.294-2.03 11.468-5.371-0.585-9.973-1.532-13.565-2.679 4.41-10.509 11.7-18.118 20.252-20.464C42.581 8.648 41.022 12.537 39.746 17.802zM34.559 8.102c-3.015 2.276-5.795 5.229-8.24 8.825-1.82 2.676-3.388 5.617-4.697 8.756-3.292-1.328-5.348-2.835-5.862-4.32C20.717 15.441 27.177 10.823 34.559 8.102zM19.933 82.998c2.347 0.862 5.033 1.6 7.943 2.206 2.046 2.646 4.289 4.888 6.683 6.694C29.104 89.887 24.149 86.841 19.933 82.998zM32.011 85.957c2.923 0.462 5.991 0.807 9.103 1.034 0.975 2.905 2.073 5.199 3.289 6.882C39.83 92.618 35.617 89.863 32.011 85.957zM50 94.643c-2.217 0-4.277-2.756-5.994-7.476 2.004 0.099 4.011 0.149 5.994 0.149 2.04 0 4.038-0.048 5.988-0.137C54.273 91.892 52.215 94.643 50 94.643zM58.877 87.018c3.192-0.221 6.224-0.561 9.057-1.003-3.593 3.874-7.786 6.61-12.337 7.858C56.809 92.195 57.904 89.912 58.877 87.018zM65.441 91.898c2.377-1.794 4.603-4.017 6.638-6.638 2.967-0.621 5.641-1.366 7.944-2.221C75.817 86.863 70.878 89.894 65.441 91.898zM86.366 75.877l-0.042-0.022c-1.185 2.19-5.433 4.417-11.906 6.082 3.898-6.118 6.561-13.489 7.806-21.463 0.376-0.105 0.756-0.209 1.122-0.318 4.854-1.443 8.538-3.143 10.997-5.042C93.466 62.798 90.638 69.885 86.366 75.877zM89.301 55.025l-3.062 1.994c-0.278 0.182-4.121 2.656-9.624 4.793 0.944-0.193 1.876-0.394 2.776-0.608-1.479 8.421-4.591 15.874-8.806 21.597-3.236 0.638-6.884 1.141-10.868 1.458 0.183-0.664 0.362-1.346 0.536-2.061 1.203-4.964 2.089-10.863 2.63-17.279-0.438 0.019-0.876 0.03-1.315 0.03h-1.38c-0.662 7.683-1.812 14.412-3.308 19.502-2.206 0.121-4.502 0.188-6.881 0.188-2.384 0-4.677-0.064-6.88-0.183-1.496-5.09-2.646-11.82-3.308-19.506h-2.692c0.542 6.404 1.426 12.293 2.627 17.248 0.174 0.719 0.355 1.404 0.54 2.072-3.987-0.31-7.622-0.803-10.842-1.429-3.638-4.927-6.449-11.146-8.111-18.159-1-0.079-1.933-0.177-2.805-0.293 1.432 6.488 3.821 12.486 7.088 17.599-6.793-1.73-11.104-4.092-12.074-6.413l-0.095 0.039c-4.167-5.936-6.926-12.929-7.79-20.501 0.682 0.526 1.466 1.035 2.335 1.53 0.066-0.99 0.366-1.865 0.833-2.629-1.612-0.972-2.777-1.98-3.441-2.993C5.375 50.68 5.357 50.343 5.357 50c0-9.867 3.208-18.983 8.63-26.373 1.255 1.748 3.596 3.253 6.679 4.503-2.162 5.965-3.409 12.565-3.651 19.428 0.798-0.45 1.708-0.851 2.738-1.16 0.34-6.23 1.54-12.103 3.439-17.35 4.035 1.311 8.961 2.266 14.221 2.852-0.457 4.327-0.746 8.941-0.857 13.705 0.933 0.005 1.833 0.013 2.677 0.02 0.112-4.743 0.404-9.268 0.848-13.459 3.26 0.281 6.608 0.424 9.919 0.424s6.659-0.143 9.919-0.424c0.212 2.006 0.39 4.09 0.529 6.236h2.672c-0.144-2.218-0.312-4.402-0.534-6.502 5.261-0.586 10.187-1.541 14.222-2.852 1.115 3.08 1.99 6.376 2.595 9.831h2.722c-0.624-3.743-1.558-7.349-2.79-10.749 3.084-1.25 5.424-2.755 6.68-4.503 5.421 7.39 8.629 16.506 8.629 26.373 0 0.343-0.018 0.68-0.025 1.021C93.718 52.392 91.9 53.755 89.301 55.025z" data-fill-palette-color="accent"></path><path fill="#bc1a11" d="M28.987 60.897c13.854 0 25.381-0.002 32.58-0.003 11.298 0 22.46-7.27 22.46-7.27l-3.605-0.816 3.655-9.877h-5.079l-9.3 8.529L60.4 50.558l4.64-8.102h-6.508l-13.867 7.287c0 0-16.292-0.272-21.398 0.107-5.373 0.397-7.414 4.236-7.414 4.236s-3.827 0.809-3.828 2.965C12.024 59.207 16.598 60.896 28.987 60.897z" data-fill-palette-color="accent"></path></g></svg></g></svg></g></svg>